<?xml version="1.0" standalone="no"?><!DOCTYPE svg PUBLIC "-//W3C//DTD SVG 1.1//EN" "http://www.w3.org/Graphics/SVG/1.1/DTD/svg11.dtd"><svg t="1574867574164" class="icon" viewBox="0 0 1024 1024" version="1.1" xmlns="http://www.w3.org/2000/svg" p-id="2744" width="128" height="128" xmlns:xlink="http://www.w3.org/1999/xlink"><defs><style type="text/css"></style></defs><path d="M324.048 328.96h226.944a69.824 69.824 0 0 1 0 139.648H324.048a69.824 69.824 0 0 1 0-139.648zM269.488 689.024v65.472c0 92.8 75.232 168.032 168.032 168.032 92.8 0 168.032-75.232 168.032-168.032v-65.472c0-92.8-75.232-168.032-168.032-168.032-92.8 0-168.032 75.232-168.032 168.032z m198.592 98.208h-61.104v-130.928h61.104v130.928z" fill="#306263" p-id="2745"></path><path d="M996.736 342.816l-90.08-233.968L789.04 0l-88.832 119.472H234.336c-89.04 0-161.232 72.192-161.232 161.232v438.88L27.264 1024h144.032l50.192-291.328V259.136h416.8l35.632 430.272L897.888 1024H721.216l220.464-328.432 55.056-352.752z m-177.824 270.88l-98.688-228.336 87.584-225.216 113.856 188.928-102.752 264.624z" fill="#306263" p-id="2746"></path><path d="M813.504 242.56l-50.576 146.624 116.032-20.768z" fill="#306263" p-id="2747"></path></svg>