<?xml version="1.0" standalone="no"?><!DOCTYPE svg PUBLIC "-//W3C//DTD SVG 1.1//EN" "http://www.w3.org/Graphics/SVG/1.1/DTD/svg11.dtd"><svg t="1574868248544" class="icon" viewBox="0 0 1024 1024" version="1.1" xmlns="http://www.w3.org/2000/svg" p-id="6925" xmlns:xlink="http://www.w3.org/1999/xlink" width="128" height="128"><defs><style type="text/css"></style></defs><path d="M835.2 158.4h-64c0 35.2-28.8 64-64 64s-64-28.8-64-64h-64c0 35.2-28.8 64-64 64s-64-28.8-64-64h-64c0 35.2-28.8 64-64 64s-64-28.8-64-64h-64c0 35.2-28.8 64-64 64v64c38.4 0 72-17.6 96-43.2 24 27.2 57.6 43.2 96 43.2s72-17.6 96-43.2c24 27.2 57.6 43.2 96 43.2s72-17.6 96-43.2c24 27.2 57.6 43.2 96 43.2s72-17.6 96-43.2c24 27.2 57.6 43.2 96 43.2v-64c-35.2 0-64-27.2-64-64zM859.2 424l-104 116.8-94.4-105.6-24-11.2H243.2l-22.4 8-96 96 44.8 44.8 86.4-86.4h368l89.6 100.8-99.2 110.4H254.4l-83.2-88L124.8 656l92.8 97.6 22.4 9.6h105.6l112 104 22.4 8h120l32-32v-81.6l20.8-9.6 102.4-115.2 104 116.8 56-20.8v-288l-56-20.8zM568 811.2h-75.2L448 769.6h120v41.6z m283.2-163.2l-52.8-59.2 52.8-59.2v118.4z" fill="#306263" p-id="6926"></path><path d="M246.608 600.48l36.208-36.208 36.208 36.208-36.208 36.192z" fill="#306263" p-id="6927"></path></svg>